# xmcd
#
# Track frame offsets:
#	150
#	16865
#	38772
#	57817
#	77915
#
# Disc length: 1370 seconds
#
# Revision: 1
# Processed by: cddbd v1.5.2PL0 Copyright (c) Steve Scherf et al.
# Submitted via: audiograbber 1.83.01
#
DISCID=30055805
DTITLE=Bu Bu Man - U Make Me Happy [CDM)
DYEAR=1996
DGENRE=Dance
TTITLE0=U Make Me Happy (Original Radio Mix)
TTITLE1=U Make Me Happy (Extended Dance Mix)
TTITLE2=U Make Me Happy (Cool R&B Radio Mix)
TTITLE3=U Make Me Happy (JS 16's Old Skool Mix)
TTITLE4=U Make Me Happy (JS 16's Fast Club Mix)
EXTD=TR.
EXTT0=
EXTT1=
EXTT2=
EXTT3=
EXTT4=
PLAYORDER=
